<?xml version="1.0" standalone="no"?>
<!DOCTYPE svg PUBLIC "-//W3C//DTD SVG 20010904//EN"
 "http://www.w3.org/TR/2001/REC-SVG-20010904/DTD/svg10.dtd">
<svg version="1.0" xmlns="http://www.w3.org/2000/svg"
 width="512.000000pt" height="512.000000pt" viewBox="0 0 512.000000 512.000000"
 preserveAspectRatio="xMidYMid meet">
<metadata>
Created by potrace 1.14, written by Peter Selinger 2001-2017
</metadata>
<g transform="translate(0.000000,512.000000) scale(0.100000,-0.100000)"
fill="#000000" stroke="none">
<path d="M1178 4156 c-1 -2 -37 -6 -78 -10 -311 -27 -601 -119 -821 -261 l-66
-43 2 -1578 c0 -869 4 -1587 9 -1596 13 -27 57 -51 95 -51 20 0 83 20 141 45
181 78 383 136 563 163 15 2 46 7 69 10 93 14 452 21 531 10 15 -2 60 -6 100
-10 40 -4 81 -9 92 -11 11 -3 36 -7 55 -10 232 -38 494 -141 673 -267 14 -10
23 -9 50 7 196 114 471 218 677 256 30 6 64 12 75 14 21 4 127 17 180 22 44 5
405 4 440 -1 17 -2 58 -6 93 -9 34 -3 73 -8 85 -11 12 -2 38 -7 57 -9 137 -19
341 -84 500 -159 43 -20 86 -34 101 -32 33 4 76 31 92 59 9 16 12 381 14 1576
0 855 -1 1562 -3 1571 -3 9 -35 37 -72 61 -199 132 -493 225 -807 255 -157 15
-570 8 -675 -11 -14 -2 -43 -7 -65 -10 -229 -32 -482 -124 -660 -242 l-65 -42
-66 43 c-187 123 -469 221 -719 250 -33 4 -69 10 -80 12 -23 5 -511 13 -517 9z
m2762 -431 c52 -3 106 -7 120 -9 14 -3 48 -7 75 -11 67 -8 167 -29 264 -55
l81 -22 0 -1228 0 -1228 -47 14 c-55 17 -201 50 -253 58 -19 2 -57 8 -85 11
-27 4 -61 9 -75 12 -44 9 -442 11 -515 3 -38 -5 -92 -11 -120 -15 -235 -28
-535 -129 -752 -253 l-73 -41 0 1227 0 1227 33 19 c101 59 278 139 387 175
170 57 170 57 295 80 166 30 169 31 320 37 77 4 141 7 142 8 2 2 100 -2 203
-9z"/>
<path d="M3518 3196 c-1 -2 -34 -6 -73 -10 -104 -9 -149 -15 -265 -38 -150
-29 -383 -105 -401 -131 -8 -11 -8 -348 0 -345 3 2 45 22 92 45 101 49 209 86
329 113 158 34 273 44 510 45 181 0 349 -8 381 -19 8 -3 30 -7 49 -10 19 -3
46 -8 60 -11 74 -15 66 -32 67 150 l0 164 -41 8 c-22 4 -45 8 -51 9 -56 6
-135 17 -155 21 -27 5 -496 13 -502 9z"/>
<path d="M3540 2627 c-3 -2 -49 -7 -102 -11 -53 -3 -103 -8 -110 -11 -7 -2
-31 -6 -53 -9 -88 -9 -255 -49 -374 -89 l-126 -42 -1 -177 c0 -98 2 -178 6
-178 4 0 40 16 80 36 93 45 218 87 335 113 184 40 263 46 570 45 248 0 356 -8
486 -36 11 -2 14 26 15 155 1 153 1 157 -20 161 -50 11 -95 17 -146 22 -30 3
-62 8 -70 11 -18 6 -484 16 -490 10z"/>
<path d="M3667 2064 c-1 -1 -60 -5 -132 -8 -71 -4 -141 -9 -155 -11 -14 -2
-50 -6 -80 -10 -143 -17 -433 -94 -511 -136 -14 -7 -16 -33 -16 -187 l1 -180
50 27 c153 81 388 148 581 166 230 22 511 22 675 0 97 -12 121 -17 168 -30 18
-5 19 4 19 155 0 138 -2 160 -16 164 -19 5 -69 13 -136 22 -27 3 -61 8 -75 10
-52 7 -368 22 -373 18z"/>
</g>
</svg>
